<svg width="50" height="50" viewBox="0 0 50 50" fill="none" xmlns="http://www.w3.org/2000/svg">
<g clip-path="url(#clip0_46_82)">
<rect width="50" height="50" fill="#FF9E2F"/>
<circle cx="25" cy="25" r="25" fill="white" fill-opacity="0.71" stroke="black" stroke-width="0.2"/>
<g clip-path="url(#clip1_46_82)">
<path d="M36.4417 36.2732L25.0076 47.9805L13.5344 36.2732C10.4385 33.0992 8.2466 30.0943 6.95879 27.2586C5.67099 24.4228 5.02708 21.3399 5.02708 18.0098C5.02708 15.2521 6.00269 12.8976 7.95391 10.9464C9.90513 8.99514 12.2596 8.01953 15.0173 8.01953C17.7751 8.01953 20.1295 8.99514 22.0807 10.9464C24.032 12.8976 25.0076 15.2521 25.0076 18.0098C25.0076 15.2521 25.9832 12.8976 27.9344 10.9464C29.8856 8.99514 32.2401 8.01953 34.9978 8.01953C37.7555 8.01953 40.11 8.99514 42.0612 10.9464C44.0125 12.8976 44.9881 15.2521 44.9881 18.0098C44.9881 21.3138 44.3442 24.3903 43.0564 27.239C41.7685 30.0878 39.5637 33.0992 36.4418 36.2732H36.4417Z" fill="#FF8686" fill-opacity="0.35"/>
</g>
<path d="M13.71 34.68C10.99 34.68 8.68 34.32 6.78 33.6C4.9 32.88 3.47 31.84 2.49 30.48C1.51 29.1 1.02 27.42 1.02 25.44C1.02 23.46 1.51 21.79 2.49 20.43C3.47 19.05 4.9 18 6.78 17.28C8.68 16.56 10.99 16.2 13.71 16.2C13.75 16.2 13.86 16.2 14.04 16.2C14.24 16.2 14.43 16.2 14.61 16.2C14.81 16.2 14.92 16.2 14.94 16.2C17.64 16.2 19.92 16.56 21.78 17.28C23.66 18 25.08 19.05 26.04 20.43C27 21.81 27.48 23.48 27.48 25.44C27.48 27.38 27 29.05 26.04 30.45C25.1 31.83 23.71 32.88 21.87 33.6C20.05 34.32 17.82 34.68 15.18 34.68C15.12 34.68 14.98 34.68 14.76 34.68C14.54 34.68 14.32 34.68 14.1 34.68C13.9 34.68 13.77 34.68 13.71 34.68ZM14.16 30.93C14.22 30.93 14.3 30.93 14.4 30.93C14.5 30.93 14.57 30.93 14.61 30.93C16.45 30.93 17.97 30.73 19.17 30.33C20.39 29.91 21.3 29.3 21.9 28.5C22.5 27.68 22.8 26.65 22.8 25.41C22.8 24.17 22.49 23.15 21.87 22.35C21.25 21.55 20.34 20.96 19.14 20.58C17.96 20.18 16.47 19.98 14.67 19.98C14.63 19.98 14.55 19.98 14.43 19.98C14.33 19.98 14.24 19.98 14.16 19.98C12.26 19.98 10.69 20.17 9.45 20.55C8.21 20.93 7.28 21.53 6.66 22.35C6.04 23.15 5.73 24.18 5.73 25.44C5.73 26.7 6.06 27.74 6.72 28.56C7.38 29.36 8.33 29.96 9.57 30.36C10.83 30.74 12.36 30.93 14.16 30.93ZM12.03 36.93V14.1H16.5V36.93H12.03ZM39.8459 36.36C38.2259 36.36 36.7159 36.1 35.3159 35.58C33.9359 35.04 32.7359 34.28 31.7159 33.3C30.6959 32.32 29.8959 31.17 29.3159 29.85C28.7559 28.53 28.4759 27.08 28.4759 25.5C28.4759 23.92 28.7559 22.47 29.3159 21.15C29.8959 19.83 30.6959 18.68 31.7159 17.7C32.7559 16.72 33.9659 15.97 35.3459 15.45C36.7259 14.91 38.2359 14.64 39.8759 14.64C41.6959 14.64 43.3359 14.96 44.7959 15.6C46.2759 16.22 47.5159 17.14 48.5159 18.36L45.3959 21.24C44.6759 20.42 43.8759 19.81 42.9959 19.41C42.1159 18.99 41.1559 18.78 40.1159 18.78C39.1359 18.78 38.2359 18.94 37.4159 19.26C36.5959 19.58 35.8859 20.04 35.2859 20.64C34.6859 21.24 34.2159 21.95 33.8759 22.77C33.5559 23.59 33.3959 24.5 33.3959 25.5C33.3959 26.5 33.5559 27.41 33.8759 28.23C34.2159 29.05 34.6859 29.76 35.2859 30.36C35.8859 30.96 36.5959 31.42 37.4159 31.74C38.2359 32.06 39.1359 32.22 40.1159 32.22C41.1559 32.22 42.1159 32.02 42.9959 31.62C43.8759 31.2 44.6759 30.57 45.3959 29.73L48.5159 32.61C47.5159 33.83 46.2759 34.76 44.7959 35.4C43.3359 36.04 41.6859 36.36 39.8459 36.36Z" fill="black"/>
</g>
<defs>
<clipPath id="clip0_46_82">
<rect width="50" height="50" fill="white"/>
</clipPath>
<clipPath id="clip1_46_82">
<rect width="40" height="40" fill="white" transform="translate(5 8)"/>
</clipPath>
</defs>
</svg>
