<svg width="500" height="500" viewBox="0 0 500 500" fill="none" xmlns="http://www.w3.org/2000/svg">
<g clip-path="url(#clip0_66_7)">
<rect width="500" height="500" fill="#FF9E2F"/>
<circle cx="250" cy="250" r="250" fill="white" fill-opacity="0.71" stroke="black" stroke-width="0.2"/>
<g clip-path="url(#clip1_66_7)">
<path d="M364.146 370.537L249.805 487.61L135.073 370.537C104.114 338.797 82.1951 308.748 69.3171 280.39C56.439 252.033 50 221.203 50 187.902C50 160.325 59.7561 136.78 79.2683 117.268C98.7805 97.7561 122.325 88 149.902 88C177.48 88 201.024 97.7561 220.537 117.268C240.049 136.78 249.805 160.325 249.805 187.902C249.805 160.325 259.561 136.78 279.073 117.268C298.585 97.7561 322.13 88 349.707 88C377.285 88 400.829 97.7561 420.341 117.268C439.854 136.78 449.61 160.325 449.61 187.902C449.61 220.943 443.171 251.707 430.293 280.195C417.415 308.683 395.366 338.797 364.147 370.537H364.146Z" fill="#FF8686" fill-opacity="0.35"/>
</g>
<path d="M137.1 343.8C109.9 343.8 86.8 340.2 67.8 333C49 325.8 34.7 315.4 24.9 301.8C15.1 288 10.2 271.2 10.2 251.4C10.2 231.6 15.1 214.9 24.9 201.3C34.7 187.5 49 177 67.8 169.8C86.8 162.6 109.9 159 137.1 159C137.5 159 138.6 159 140.4 159C142.4 159 144.3 159 146.1 159C148.1 159 149.2 159 149.4 159C176.4 159 199.2 162.6 217.8 169.8C236.6 177 250.8 187.5 260.4 201.3C270 215.1 274.8 231.8 274.8 251.4C274.8 270.8 270 287.5 260.4 301.5C251 315.3 237.1 325.8 218.7 333C200.5 340.2 178.2 343.8 151.8 343.8C151.2 343.8 149.8 343.8 147.6 343.8C145.4 343.8 143.2 343.8 141 343.8C139 343.8 137.7 343.8 137.1 343.8ZM141.6 306.3C142.2 306.3 143 306.3 144 306.3C145 306.3 145.7 306.3 146.1 306.3C164.5 306.3 179.7 304.3 191.7 300.3C203.9 296.1 213 290 219 282C225 273.8 228 263.5 228 251.1C228 238.7 224.9 228.5 218.7 220.5C212.5 212.5 203.4 206.6 191.4 202.8C179.6 198.8 164.7 196.8 146.7 196.8C146.3 196.8 145.5 196.8 144.3 196.8C143.3 196.8 142.4 196.8 141.6 196.8C122.6 196.8 106.9 198.7 94.5 202.5C82.1 206.3 72.8 212.3 66.6 220.5C60.4 228.5 57.3 238.8 57.3 251.4C57.3 264 60.6 274.4 67.2 282.6C73.8 290.6 83.3 296.6 95.7 300.6C108.3 304.4 123.6 306.3 141.6 306.3ZM120.3 366.3V138H165V366.3H120.3ZM398.459 360.6C382.259 360.6 367.159 358 353.159 352.8C339.359 347.4 327.359 339.8 317.159 330C306.959 320.2 298.959 308.7 293.159 295.5C287.559 282.3 284.759 267.8 284.759 252C284.759 236.2 287.559 221.7 293.159 208.5C298.959 195.3 306.959 183.8 317.159 174C327.559 164.2 339.659 156.7 353.459 151.5C367.259 146.1 382.359 143.4 398.759 143.4C416.959 143.4 433.359 146.6 447.959 153C462.759 159.2 475.159 168.4 485.159 180.6L453.959 209.4C446.759 201.2 438.759 195.1 429.959 191.1C421.159 186.9 411.559 184.8 401.159 184.8C391.359 184.8 382.359 186.4 374.159 189.6C365.959 192.8 358.859 197.4 352.859 203.4C346.859 209.4 342.159 216.5 338.759 224.7C335.559 232.9 333.959 242 333.959 252C333.959 262 335.559 271.1 338.759 279.3C342.159 287.5 346.859 294.6 352.859 300.6C358.859 306.6 365.959 311.2 374.159 314.4C382.359 317.6 391.359 319.2 401.159 319.2C411.559 319.2 421.159 317.2 429.959 313.2C438.759 309 446.759 302.7 453.959 294.3L485.159 323.1C475.159 335.3 462.759 344.6 447.959 351C433.359 357.4 416.859 360.6 398.459 360.6Z" fill="black"/>
</g>
<defs>
<clipPath id="clip0_66_7">
<rect width="500" height="500" fill="white"/>
</clipPath>
<clipPath id="clip1_66_7">
<rect width="400" height="400" fill="white" transform="translate(50 88)"/>
</clipPath>
</defs>
</svg>
