<svg width="330" height="88" viewBox="0 0 330 88" fill="none" xmlns="http://www.w3.org/2000/svg">
<g filter="url(#filter0_f_42_10)">
<rect x="42.5" y="14.5" width="57" height="60" rx="28.5" stroke="#FF9E2F" stroke-width="5"/>
<rect x="48" y="21" width="46.1692" height="47.8226" rx="23.0846" stroke="#FF9E2F" stroke-width="12"/>
</g>
<g filter="url(#filter1_d_42_10)">
<path d="M23.2869 41.42C21.0469 41.42 18.9609 41.056 17.0289 40.328C15.1249 39.572 13.4589 38.522 12.0309 37.178C10.6309 35.806 9.53888 34.196 8.75488 32.348C7.97088 30.5 7.57888 28.484 7.57888 26.3C7.57888 24.116 7.97088 22.1 8.75488 20.252C9.53888 18.404 10.6449 16.808 12.0729 15.464C13.5009 14.092 15.1669 13.042 17.0709 12.314C18.9749 11.558 21.0609 11.18 23.3289 11.18C25.7369 11.18 27.9349 11.6 29.9229 12.44C31.9109 13.252 33.5909 14.47 34.9629 16.094L31.4349 19.412C30.3709 18.264 29.1809 17.41 27.8649 16.85C26.5489 16.262 25.1209 15.968 23.5809 15.968C22.0409 15.968 20.6269 16.22 19.3389 16.724C18.0789 17.228 16.9729 17.942 16.0209 18.866C15.0969 19.79 14.3689 20.882 13.8369 22.142C13.3329 23.402 13.0809 24.788 13.0809 26.3C13.0809 27.812 13.3329 29.198 13.8369 30.458C14.3689 31.718 15.0969 32.81 16.0209 33.734C16.9729 34.658 18.0789 35.372 19.3389 35.876C20.6269 36.38 22.0409 36.632 23.5809 36.632C25.1209 36.632 26.5489 36.352 27.8649 35.792C29.1809 35.204 30.3709 34.322 31.4349 33.146L34.9629 36.506C33.5909 38.102 31.9109 39.32 29.9229 40.16C27.9349 41 25.7229 41.42 23.2869 41.42ZM114.885 41.294C112.589 41.294 110.545 40.804 108.753 39.824C106.961 38.816 105.547 37.444 104.511 35.708C103.475 33.972 102.957 31.998 102.957 29.786C102.957 27.546 103.475 25.572 104.511 23.864C105.547 22.128 106.961 20.77 108.753 19.79C110.545 18.81 112.589 18.32 114.885 18.32C117.209 18.32 119.267 18.81 121.059 19.79C122.879 20.77 124.293 22.114 125.301 23.822C126.337 25.53 126.855 27.518 126.855 29.786C126.855 31.998 126.337 33.972 125.301 35.708C124.293 37.444 122.879 38.816 121.059 39.824C119.267 40.804 117.209 41.294 114.885 41.294ZM114.885 36.8C116.173 36.8 117.321 36.52 118.329 35.96C119.337 35.4 120.121 34.588 120.681 33.524C121.269 32.46 121.563 31.214 121.563 29.786C121.563 28.33 121.269 27.084 120.681 26.048C120.121 24.984 119.337 24.172 118.329 23.612C117.321 23.052 116.187 22.772 114.927 22.772C113.639 22.772 112.491 23.052 111.483 23.612C110.503 24.172 109.719 24.984 109.131 26.048C108.543 27.084 108.249 28.33 108.249 29.786C108.249 31.214 108.543 32.46 109.131 33.524C109.719 34.588 110.503 35.4 111.483 35.96C112.491 36.52 113.625 36.8 114.885 36.8ZM142.751 41.42C140.903 41.42 139.251 41.14 137.795 40.58C136.339 40.02 135.079 39.166 134.015 38.018C132.979 36.842 132.181 35.358 131.621 33.566C131.061 31.774 130.781 29.646 130.781 27.182C130.781 25.39 130.935 23.752 131.243 22.268C131.551 20.784 132.013 19.454 132.629 18.278C133.245 17.074 134.015 16.01 134.939 15.086C135.891 14.162 136.997 13.392 138.257 12.776C139.517 12.16 140.945 11.684 142.541 11.348L152.957 9.122L153.713 13.826L144.263 15.758C143.731 15.87 143.087 16.038 142.331 16.262C141.603 16.458 140.847 16.766 140.063 17.186C139.307 17.578 138.593 18.152 137.921 18.908C137.277 19.636 136.745 20.588 136.325 21.764C135.933 22.912 135.737 24.354 135.737 26.09C135.737 26.622 135.751 27.028 135.779 27.308C135.835 27.56 135.877 27.84 135.905 28.148C135.961 28.428 135.989 28.848 135.989 29.408L134.015 27.35C134.575 25.922 135.345 24.704 136.325 23.696C137.333 22.66 138.495 21.876 139.811 21.344C141.155 20.784 142.611 20.504 144.179 20.504C146.279 20.504 148.141 20.938 149.765 21.806C151.389 22.674 152.663 23.892 153.587 25.46C154.511 27.028 154.973 28.806 154.973 30.794C154.973 32.866 154.469 34.7 153.461 36.296C152.453 37.892 151.025 39.152 149.177 40.076C147.357 40.972 145.215 41.42 142.751 41.42ZM143.171 37.178C144.431 37.178 145.537 36.912 146.489 36.38C147.469 35.82 148.225 35.064 148.757 34.112C149.317 33.16 149.597 32.096 149.597 30.92C149.597 29.744 149.317 28.722 148.757 27.854C148.225 26.958 147.469 26.244 146.489 25.712C145.537 25.18 144.403 24.914 143.087 24.914C141.827 24.914 140.693 25.166 139.685 25.67C138.705 26.174 137.935 26.874 137.375 27.77C136.843 28.638 136.577 29.646 136.577 30.794C136.577 31.97 136.857 33.048 137.417 34.028C137.977 35.008 138.747 35.778 139.727 36.338C140.735 36.898 141.883 37.178 143.171 37.178ZM175.133 36.548L173.999 37.808V18.572H179.249V37.808L177.989 36.548H189.077L187.859 37.808V18.572H193.109V41H160.055V18.572H165.305V37.808L164.087 36.548H175.133ZM191.429 45.62V39.698L192.647 41H187.691V36.548H196.343V45.62H191.429ZM210.626 41.294C208.134 41.294 205.95 40.804 204.074 39.824C202.226 38.816 200.784 37.444 199.748 35.708C198.74 33.972 198.236 31.998 198.236 29.786C198.236 27.546 198.726 25.572 199.706 23.864C200.714 22.128 202.086 20.77 203.822 19.79C205.586 18.81 207.588 18.32 209.828 18.32C212.012 18.32 213.958 18.796 215.666 19.748C217.374 20.7 218.718 22.044 219.698 23.78C220.678 25.516 221.168 27.56 221.168 29.912C221.168 30.136 221.154 30.388 221.126 30.668C221.126 30.948 221.112 31.214 221.084 31.466H202.394V27.98H218.312L216.254 29.072C216.282 27.784 216.016 26.65 215.456 25.67C214.896 24.69 214.126 23.92 213.146 23.36C212.194 22.8 211.088 22.52 209.828 22.52C208.54 22.52 207.406 22.8 206.426 23.36C205.474 23.92 204.718 24.704 204.158 25.712C203.626 26.692 203.36 27.854 203.36 29.198V30.038C203.36 31.382 203.668 32.572 204.284 33.608C204.9 34.644 205.768 35.442 206.888 36.002C208.008 36.562 209.296 36.842 210.752 36.842C212.012 36.842 213.146 36.646 214.154 36.254C215.162 35.862 216.058 35.246 216.842 34.406L219.656 37.64C218.648 38.816 217.374 39.726 215.834 40.37C214.322 40.986 212.586 41.294 210.626 41.294ZM237.116 41.294C234.764 41.294 232.664 40.804 230.816 39.824C228.996 38.816 227.568 37.444 226.532 35.708C225.496 33.972 224.978 31.998 224.978 29.786C224.978 27.546 225.496 25.572 226.532 23.864C227.568 22.128 228.996 20.77 230.816 19.79C232.664 18.81 234.764 18.32 237.116 18.32C239.3 18.32 241.218 18.768 242.87 19.664C244.55 20.532 245.824 21.82 246.692 23.528L242.66 25.88C241.988 24.816 241.162 24.032 240.182 23.528C239.23 23.024 238.194 22.772 237.074 22.772C235.786 22.772 234.624 23.052 233.588 23.612C232.552 24.172 231.74 24.984 231.152 26.048C230.564 27.084 230.27 28.33 230.27 29.786C230.27 31.242 230.564 32.502 231.152 33.566C231.74 34.602 232.552 35.4 233.588 35.96C234.624 36.52 235.786 36.8 237.074 36.8C238.194 36.8 239.23 36.548 240.182 36.044C241.162 35.54 241.988 34.756 242.66 33.692L246.692 36.044C245.824 37.724 244.55 39.026 242.87 39.95C241.218 40.846 239.3 41.294 237.116 41.294ZM255.813 41V21.764L257.031 23.024H247.917V18.572H268.917V23.024H259.845L261.063 21.764V41H255.813ZM272.725 41V18.572H283.687C286.403 18.572 288.531 19.076 290.071 20.084C291.639 21.092 292.423 22.52 292.423 24.368C292.423 26.188 291.695 27.616 290.239 28.652C288.783 29.66 286.851 30.164 284.443 30.164L285.073 28.862C287.789 28.862 289.805 29.366 291.121 30.374C292.465 31.354 293.137 32.796 293.137 34.7C293.137 36.688 292.395 38.242 290.911 39.362C289.427 40.454 287.173 41 284.149 41H272.725ZM277.723 37.178H283.729C285.157 37.178 286.235 36.954 286.963 36.506C287.691 36.03 288.055 35.316 288.055 34.364C288.055 33.356 287.719 32.614 287.047 32.138C286.375 31.662 285.325 31.424 283.897 31.424H277.723V37.178ZM277.723 27.938H283.225C284.569 27.938 285.577 27.7 286.249 27.224C286.949 26.72 287.299 26.02 287.299 25.124C287.299 24.2 286.949 23.514 286.249 23.066C285.577 22.618 284.569 22.394 283.225 22.394H277.723V27.938ZM308.725 41.294C306.429 41.294 304.385 40.804 302.593 39.824C300.801 38.816 299.387 37.444 298.351 35.708C297.315 33.972 296.797 31.998 296.797 29.786C296.797 27.546 297.315 25.572 298.351 23.864C299.387 22.128 300.801 20.77 302.593 19.79C304.385 18.81 306.429 18.32 308.725 18.32C311.049 18.32 313.107 18.81 314.899 19.79C316.719 20.77 318.133 22.114 319.141 23.822C320.177 25.53 320.695 27.518 320.695 29.786C320.695 31.998 320.177 33.972 319.141 35.708C318.133 37.444 316.719 38.816 314.899 39.824C313.107 40.804 311.049 41.294 308.725 41.294ZM308.725 36.8C310.013 36.8 311.161 36.52 312.169 35.96C313.177 35.4 313.961 34.588 314.521 33.524C315.109 32.46 315.403 31.214 315.403 29.786C315.403 28.33 315.109 27.084 314.521 26.048C313.961 24.984 313.177 24.172 312.169 23.612C311.161 23.052 310.027 22.772 308.767 22.772C307.479 22.772 306.331 23.052 305.323 23.612C304.343 24.172 303.559 24.984 302.971 26.048C302.383 27.084 302.089 28.33 302.089 29.786C302.089 31.214 302.383 32.46 302.971 33.524C303.559 34.588 304.343 35.4 305.323 35.96C306.331 36.52 307.465 36.8 308.725 36.8Z" fill="white"/>
</g>
<g filter="url(#filter2_d_42_10)">
<path d="M22.0844 72.11C18.3884 72.11 15.2384 71.606 12.6344 70.598C10.0584 69.59 8.0844 68.134 6.7124 66.23C5.3404 64.298 4.6544 61.974 4.6544 59.258C4.6544 56.486 5.3404 54.148 6.7124 52.244C8.0844 50.34 10.0584 48.884 12.6344 47.876C15.2384 46.868 18.3884 46.364 22.0844 46.364C22.1404 46.364 22.2664 46.364 22.4624 46.364C22.6864 46.364 22.8964 46.364 23.0924 46.364C23.3164 46.364 23.4424 46.364 23.4704 46.364C27.1384 46.364 30.2604 46.868 32.8364 47.876C35.4124 48.884 37.3724 50.354 38.7164 52.286C40.0604 54.19 40.7324 56.514 40.7324 59.258C40.7324 61.946 40.0604 64.256 38.7164 66.188C37.4004 68.12 35.4684 69.59 32.9204 70.598C30.4004 71.606 27.3204 72.11 23.6804 72.11C23.6244 72.11 23.4704 72.11 23.2184 72.11C22.9944 72.11 22.7564 72.11 22.5044 72.11C22.2804 72.11 22.1404 72.11 22.0844 72.11ZM22.6304 67.868C22.6864 67.868 22.7704 67.868 22.8824 67.868C22.9944 67.868 23.0644 67.868 23.0924 67.868C25.8084 67.84 28.0764 67.504 29.8964 66.86C31.7444 66.216 33.1304 65.264 34.0544 64.004C35.0064 62.716 35.4824 61.12 35.4824 59.216C35.4824 57.312 35.0064 55.73 34.0544 54.47C33.1024 53.21 31.7164 52.258 29.8964 51.614C28.0764 50.97 25.8364 50.648 23.1764 50.648C23.1484 50.648 23.0644 50.648 22.9244 50.648C22.7844 50.648 22.6864 50.648 22.6304 50.648C19.8584 50.648 17.5204 50.97 15.6164 51.614C13.7404 52.23 12.3264 53.182 11.3744 54.47C10.4504 55.73 9.9884 57.326 9.9884 59.258C9.9884 61.19 10.4784 62.8 11.4584 64.088C12.4664 65.348 13.9084 66.3 15.7844 66.944C17.6604 67.56 19.9424 67.868 22.6304 67.868ZM20.1944 75.176V43.424H25.2344V75.176H20.1944ZM122.101 74L113.995 63.248L118.279 60.602L128.275 74H122.101ZM106.015 74V51.572H111.265V74H106.015ZM109.711 65.012V60.644H117.313V65.012H109.711ZM118.783 63.416L113.869 62.828L122.101 51.572H127.729L118.783 63.416ZM141.446 74.294C139.094 74.294 136.994 73.804 135.146 72.824C133.326 71.816 131.898 70.444 130.862 68.708C129.826 66.972 129.308 64.998 129.308 62.786C129.308 60.546 129.826 58.572 130.862 56.864C131.898 55.128 133.326 53.77 135.146 52.79C136.994 51.81 139.094 51.32 141.446 51.32C143.63 51.32 145.548 51.768 147.2 52.664C148.88 53.532 150.154 54.82 151.022 56.528L146.99 58.88C146.318 57.816 145.492 57.032 144.512 56.528C143.56 56.024 142.524 55.772 141.404 55.772C140.116 55.772 138.954 56.052 137.918 56.612C136.882 57.172 136.07 57.984 135.482 59.048C134.894 60.084 134.6 61.33 134.6 62.786C134.6 64.242 134.894 65.502 135.482 66.566C136.07 67.602 136.882 68.4 137.918 68.96C138.954 69.52 140.116 69.8 141.404 69.8C142.524 69.8 143.56 69.548 144.512 69.044C145.492 68.54 146.318 67.756 146.99 66.692L151.022 69.044C150.154 70.724 148.88 72.026 147.2 72.95C145.548 73.846 143.63 74.294 141.446 74.294ZM171.143 72.11C167.447 72.11 164.297 71.606 161.693 70.598C159.117 69.59 157.143 68.134 155.771 66.23C154.399 64.298 153.713 61.974 153.713 59.258C153.713 56.486 154.399 54.148 155.771 52.244C157.143 50.34 159.117 48.884 161.693 47.876C164.297 46.868 167.447 46.364 171.143 46.364C171.199 46.364 171.325 46.364 171.521 46.364C171.745 46.364 171.955 46.364 172.151 46.364C172.375 46.364 172.501 46.364 172.529 46.364C176.197 46.364 179.319 46.868 181.895 47.876C184.471 48.884 186.431 50.354 187.775 52.286C189.119 54.19 189.791 56.514 189.791 59.258C189.791 61.946 189.119 64.256 187.775 66.188C186.459 68.12 184.527 69.59 181.979 70.598C179.459 71.606 176.379 72.11 172.739 72.11C172.683 72.11 172.529 72.11 172.277 72.11C172.053 72.11 171.815 72.11 171.563 72.11C171.339 72.11 171.199 72.11 171.143 72.11ZM171.689 67.868C171.745 67.868 171.829 67.868 171.941 67.868C172.053 67.868 172.123 67.868 172.151 67.868C174.867 67.84 177.135 67.504 178.955 66.86C180.803 66.216 182.189 65.264 183.113 64.004C184.065 62.716 184.541 61.12 184.541 59.216C184.541 57.312 184.065 55.73 183.113 54.47C182.161 53.21 180.775 52.258 178.955 51.614C177.135 50.97 174.895 50.648 172.235 50.648C172.207 50.648 172.123 50.648 171.983 50.648C171.843 50.648 171.745 50.648 171.689 50.648C168.917 50.648 166.579 50.97 164.675 51.614C162.799 52.23 161.385 53.182 160.433 54.47C159.509 55.73 159.047 57.326 159.047 59.258C159.047 61.19 159.537 62.8 160.517 64.088C161.525 65.348 162.967 66.3 164.843 66.944C166.719 67.56 169.001 67.868 171.689 67.868ZM169.253 75.176V43.424H174.293V75.176H169.253ZM204.933 74.294C202.637 74.294 200.593 73.804 198.801 72.824C197.009 71.816 195.595 70.444 194.559 68.708C193.523 66.972 193.005 64.998 193.005 62.786C193.005 60.546 193.523 58.572 194.559 56.864C195.595 55.128 197.009 53.77 198.801 52.79C200.593 51.81 202.637 51.32 204.933 51.32C207.257 51.32 209.315 51.81 211.107 52.79C212.927 53.77 214.341 55.114 215.349 56.822C216.385 58.53 216.903 60.518 216.903 62.786C216.903 64.998 216.385 66.972 215.349 68.708C214.341 70.444 212.927 71.816 211.107 72.824C209.315 73.804 207.257 74.294 204.933 74.294ZM204.933 69.8C206.221 69.8 207.369 69.52 208.377 68.96C209.385 68.4 210.169 67.588 210.729 66.524C211.317 65.46 211.611 64.214 211.611 62.786C211.611 61.33 211.317 60.084 210.729 59.048C210.169 57.984 209.385 57.172 208.377 56.612C207.369 56.052 206.235 55.772 204.975 55.772C203.687 55.772 202.539 56.052 201.531 56.612C200.551 57.172 199.767 57.984 199.179 59.048C198.591 60.084 198.297 61.33 198.297 62.786C198.297 64.214 198.591 65.46 199.179 66.524C199.767 67.588 200.551 68.4 201.531 68.96C202.539 69.52 203.673 69.8 204.933 69.8ZM234.522 74.294C232.702 74.294 231.036 73.874 229.524 73.034C228.04 72.194 226.85 70.934 225.954 69.254C225.086 67.546 224.652 65.39 224.652 62.786C224.652 60.154 225.072 57.998 225.912 56.318C226.78 54.638 227.956 53.392 229.44 52.58C230.924 51.74 232.618 51.32 234.522 51.32C236.734 51.32 238.68 51.796 240.36 52.748C242.068 53.7 243.412 55.03 244.392 56.738C245.4 58.446 245.904 60.462 245.904 62.786C245.904 65.11 245.4 67.14 244.392 68.876C243.412 70.584 242.068 71.914 240.36 72.866C238.68 73.818 236.734 74.294 234.522 74.294ZM222.09 82.148V51.572H227.088V56.864L226.92 62.828L227.34 68.792V82.148H222.09ZM233.934 69.8C235.194 69.8 236.314 69.52 237.294 68.96C238.302 68.4 239.1 67.588 239.688 66.524C240.276 65.46 240.57 64.214 240.57 62.786C240.57 61.33 240.276 60.084 239.688 59.048C239.1 57.984 238.302 57.172 237.294 56.612C236.314 56.052 235.194 55.772 233.934 55.772C232.674 55.772 231.54 56.052 230.532 56.612C229.524 57.172 228.726 57.984 228.138 59.048C227.55 60.084 227.256 61.33 227.256 62.786C227.256 64.214 227.55 65.46 228.138 66.524C228.726 67.588 229.524 68.4 230.532 68.96C231.54 69.52 232.674 69.8 233.934 69.8ZM266.255 71.564V56.024H257.645L257.519 59.636C257.463 60.924 257.379 62.17 257.267 63.374C257.155 64.55 256.973 65.642 256.721 66.65C256.469 67.63 256.105 68.442 255.629 69.086C255.153 69.73 254.523 70.15 253.739 70.346L248.531 69.548C249.371 69.548 250.043 69.282 250.547 68.75C251.079 68.19 251.485 67.434 251.765 66.482C252.073 65.502 252.297 64.396 252.437 63.164C252.577 61.904 252.675 60.602 252.731 59.258L253.025 51.572H271.505V71.564H266.255ZM247.733 78.998V69.548H274.823V78.998H269.909V74H252.605V78.998H247.733Z" fill="white"/>
</g>
<rect x="41.5" y="11.5" width="57" height="60" rx="28.5" stroke="white" stroke-width="5"/>
<rect x="46" y="16" width="48.2462" height="50" rx="24.1231" stroke="white" stroke-width="12"/>
<defs>
<filter id="filter0_f_42_10" x="35" y="7" width="72" height="75" filterUnits="userSpaceOnUse" color-interpolation-filters="sRGB">
<feFlood flood-opacity="0" result="BackgroundImageFix"/>
<feBlend mode="normal" in="SourceGraphic" in2="BackgroundImageFix" result="shape"/>
<feGaussianBlur stdDeviation="2.5" result="effect1_foregroundBlur_42_10"/>
</filter>
<filter id="filter1_d_42_10" x="7.57888" y="9.12201" width="315.116" height="39.998" filterUnits="userSpaceOnUse" color-interpolation-filters="sRGB">
<feFlood flood-opacity="0" result="BackgroundImageFix"/>
<feColorMatrix in="SourceAlpha" type="matrix" values="0 0 0 0 0 0 0 0 0 0 0 0 0 0 0 0 0 0 127 0" result="hardAlpha"/>
<feOffset dx="1" dy="2.5"/>
<feGaussianBlur stdDeviation="0.5"/>
<feComposite in2="hardAlpha" operator="out"/>
<feColorMatrix type="matrix" values="0 0 0 0 1 0 0 0 0 0.619608 0 0 0 0 0.184314 0 0 0 0.8 0"/>
<feBlend mode="normal" in2="BackgroundImageFix" result="effect1_dropShadow_42_10"/>
<feBlend mode="normal" in="SourceGraphic" in2="effect1_dropShadow_42_10" result="shape"/>
</filter>
<filter id="filter2_d_42_10" x="4.6544" y="43.424" width="272.168" height="42.224" filterUnits="userSpaceOnUse" color-interpolation-filters="sRGB">
<feFlood flood-opacity="0" result="BackgroundImageFix"/>
<feColorMatrix in="SourceAlpha" type="matrix" values="0 0 0 0 0 0 0 0 0 0 0 0 0 0 0 0 0 0 127 0" result="hardAlpha"/>
<feOffset dx="1" dy="2.5"/>
<feGaussianBlur stdDeviation="0.5"/>
<feComposite in2="hardAlpha" operator="out"/>
<feColorMatrix type="matrix" values="0 0 0 0 1 0 0 0 0 0.619608 0 0 0 0 0.184314 0 0 0 0.8 0"/>
<feBlend mode="normal" in2="BackgroundImageFix" result="effect1_dropShadow_42_10"/>
<feBlend mode="normal" in="SourceGraphic" in2="effect1_dropShadow_42_10" result="shape"/>
</filter>
</defs>
</svg>
